<?xml version="1.0" encoding="UTF-8"?>
<!DOCTYPE svg PUBLIC "-//W3C//DTD SVG 1.1//EN" "http://www.w3.org/Graphics/SVG/1.1/DTD/svg11.dtd">
<!-- Creator: CorelDRAW 2020 (64-Bit) -->
<svg xmlns="http://www.w3.org/2000/svg" xml:space="preserve" width="91.948mm" height="40.145mm" version="1.1" style="shape-rendering:geometricPrecision; text-rendering:geometricPrecision; image-rendering:optimizeQuality; fill-rule:evenodd; clip-rule:evenodd"
viewBox="0 0 9150.89 3995.33"
 xmlns:xlink="http://www.w3.org/1999/xlink"
 xmlns:xodm="http://www.corel.com/coreldraw/odm/2003">
 <defs>
  <style type="text/css">
   <![CDATA[
    .fil2 {fill:#006FFF}
    .fil1 {fill:#09C9ED}
    .fil0 {fill:#CDDE5A}
    .fil3 {fill:#EE6E35}
    .fil4 {fill:#FFDE17}
    .fil5 {fill:#333333;fill-rule:nonzero}
   ]]>
  </style>
 </defs>
 <g id="Слой_x0020_1">
  <metadata id="CorelCorpID_0Corel-Layer"/>
  <g id="_2614644036432">
   <path class="fil0" d="M-0 1286.77l1286.77 -1286.77 -962.42 0c-178.39,0 -324.34,145.95 -324.34,324.34l0 962.42z"/>
   <path class="fil1" d="M1287.74 0l-1287.74 1287.73 0 830.24c0,45.78 26.11,84.86 68.41,102.38 42.29,17.53 88.4,8.35 120.77,-24.01l2196.32 -2196.33 -1097.76 0z"/>
   <path class="fil2" d="M2387.1 0c-1025.6,1025.6 -1441.96,1443.84 -1079.61,1081.5 155.17,-157.06 234.69,-166.78 401.1,-0.39l347.58 347.59 960.28 -960.28 0 -144.08c0,-178.39 -145.95,-324.34 -324.34,-324.34l-305.01 0z"/>
   <path class="fil3" d="M3016.45 469.39l-959.8 959.8 548.9 548.88 410.91 -410.91 0 -1097.77zm-2960.19 2961.1c-45.54,45.54 -56.26,153.57 -56.26,202.22 0,178.4 145.95,324.34 324.34,324.34l302.21 0 507.95 -507.95 -9.72 0c-52.58,0 -97.46,-30.07 -117.47,-78.68 -20.01,-48.61 -9.31,-101.55 28.04,-138.57l131.56 -130.42 261.27 -259.01c49.41,-48.99 129.46,-48.99 178.86,0l67.37 66.78 382.24 -382.24 -412.95 -412.96c-99,-99.01 -206.2,-64.77 -267.25,-3.71 -458.81,458.82 -861.38,861.38 -1320.19,1320.2z"/>
   <path class="fil4" d="M3016.45 1570.9l-409.05 409.05 219.87 219.87c32.37,32.37 78.48,41.54 120.77,24.01 42.3,-17.52 68.41,-56.6 68.41,-102.38l0 -550.55zm-957.92 957.92l-382.24 382.25 192.02 190.36 131.57 130.42c37.33,37.01 48.05,89.96 28.03,138.57 -20,48.62 -64.89,78.68 -117.46,78.68l-392.84 0 -379.35 0 -507.96 507.95 1097.77 0 879.33 -879.33 -548.88 -548.9z"/>
   <path class="fil2" d="M2607.9 3078.2l-878.86 878.85 963.07 0c178.39,0 324.34,-145.94 324.34,-324.34 0,-239.59 -229.92,-375.88 -408.55,-554.51z"/>
  </g>
  <g id="_2614644035760">
   <path class="fil5" d="M5034.28 1831.08l-476.09 -1311.69c-20.62,-53.62 -47.43,-68.05 -107.24,-68.05l-234.77 0c-59.81,0 -86.61,12.36 -107.26,72.17l-474.01 1307.57c-20.61,55.69 -8.25,84.56 55.33,84.56l216.56 0c103.12,0 129.94,-22.69 150.55,-86.61l47.44 -148.49 445.15 0 47.43 148.49c16.49,63.92 47.43,86.61 154.67,86.61l222.41 0c61.87,0 80.43,-28.87 59.8,-84.56zm-653.44 -715.65l76.3 241.3 -257.45 0 75.97 -243.36c41.25,-138.18 39.18,-286.69 39.18,-286.69l20.63 0c0,0 4.11,148.52 45.37,288.75zm1923.9 -666.17l-247.49 0c-47.44,0 -68.05,12.39 -86.62,41.26l-280.48 480.54c-88.69,150.55 -115.5,220.67 -198,428.98l-14.44 0c66,-218.62 76.31,-284.61 76.31,-509.42l0 -352.68c0,-63.94 -20.62,-86.61 -86.62,-86.61l-233.05 0c-66,0 -88.67,22.67 -88.67,86.61l0 1291.07c0,63.92 22.67,86.61 88.67,86.61l249.56 0c45.36,0 68.05,-10.3 84.54,-41.25l284.62 -484.65c88.68,-150.57 117.56,-212.44 193.87,-424.87l16.49 0c-55.67,224.82 -78.36,280.49 -78.36,511.49l0 350.61c0,65.99 22.69,88.68 88.67,88.68l231 0c65.99,0 88.68,-22.69 88.68,-86.61l0 -1291.07c0,-66 -22.69,-88.69 -88.68,-88.69zm1324.08 2.08l-1020.91 0c-65.98,0 -86.62,22.67 -86.62,86.61l0 185.62c0,66 20.64,88.67 86.62,88.67l307.31 0 0 1016.78c0,63.92 20.62,86.61 86.61,86.61l233.06 0c65.99,0 88.68,-22.69 88.68,-86.61l0 -1016.78 305.25 0c65.99,0 88.66,-22.67 88.66,-88.67l0 -185.62c0,-63.94 -22.67,-86.61 -88.66,-86.61zm1373.56 -2.08l-247.49 0c-47.43,0 -68.05,12.39 -86.61,41.26l-280.49 480.54c-88.68,150.55 -115.49,220.67 -198,428.98l-14.43 0c65.99,-218.62 76.3,-284.61 76.3,-509.42l0 -352.68c0,-63.94 -20.62,-86.61 -86.61,-86.61l-233.06 0c-65.99,0 -88.66,22.67 -88.66,86.61l0 1291.07c0,63.92 22.67,86.61 88.66,86.61l249.57 0c45.36,0 68.05,-10.3 84.54,-41.25l284.61 -484.65c88.69,-150.57 117.57,-212.44 193.87,-424.87l16.49 0c-55.67,224.82 -78.35,280.49 -78.35,511.49l0 350.61c0,65.99 22.68,88.68 88.66,88.68l231 0c66,0 88.69,-22.69 88.69,-86.61l0 -1291.07c0,-66 -22.69,-88.69 -88.69,-88.69z"/>
   <path class="fil5" d="M4987.75 3859.35l-280.23 -530.73c-36.1,-72.18 -76.43,-125.27 -129.51,-163.49l386.39 -615.65c33.97,-55.22 12.74,-93.41 -50.95,-93.41l-244.15 0c-110.4,0 -129.51,12.73 -169.85,78.55l-305.7 481.91 -46.71 0 0 -471.3c0,-65.82 -21.23,-89.16 -89.16,-89.16l-239.9 0c-67.93,0 -91.27,23.34 -91.27,89.16l0 1328.97c0,65.8 23.34,89.16 91.27,89.16l239.9 0c67.93,0 89.16,-23.36 89.16,-89.16l0 -486.15 38.22 0c80.68,0 110.4,38.2 144.37,106.13l184.68 380.02c36.11,74.3 76.43,89.16 188.95,89.16l229.29 0c70.05,0 84.91,-46.72 55.19,-104.02zm1307.75 -1403.28l-906.51 0c-67.93,0 -91.29,23.34 -91.29,89.16l0 484.03c0,399.12 -101.89,492.54 -229.27,566.84 -59.43,33.97 -74.29,63.68 -42.47,123.13l121.02 217.26c31.84,59.43 61.55,74.29 121,42.47 252.64,-125.27 443.71,-333.68 443.71,-951.81l0 -199.56 254.75 0 0 1046.63c0,65.8 21.23,89.16 89.16,89.16l239.9 0c67.93,0 91.29,-23.36 91.29,-89.16l0 -1328.97c0,-65.82 -23.36,-89.16 -91.29,-89.16zm1468.04 0l-252.65 0c-95.52,0 -121.01,6.37 -148.6,78.55l-195.31 471.3 -205.93 -471.3c-29.72,-74.32 -63.68,-78.55 -163.47,-78.55l-250.51 0c-65.82,0 -78.54,29.73 -50.96,89.16l450.07 972.31 -159.24 356.66c-25.47,55.2 -16.97,89.16 44.61,89.16l269.62 0c93.4,0 118.88,-12.74 146.47,-78.54l560.47 -1339.59c25.83,-59.43 17.33,-89.16 -44.58,-89.16zm1196.28 -2.13l-936.23 0c-67.93,0 -91.28,23.36 -91.28,91.29l0 1333.22c0,63.69 25.48,84.91 89.16,84.91l634.76 0c299.33,0 494.65,-186.81 494.65,-486.16 0,-303.58 -195.31,-488.29 -494.65,-488.29l-303.58 0 0 -188.93 607.17 0c65.82,0 89.16,-21.24 89.16,-89.16l0 -165.6c0,-67.93 -23.34,-91.29 -89.16,-91.29zm-237.76 1021.14c0,93.41 -55.22,142.24 -154.99,142.24l-214.42 0 0 -282.35 214.42 0c99.77,0 154.99,48.84 154.99,140.11z"/>
   <path class="fil3" d="M5538.67 263.41c9.34,22.67 30.27,36.68 54.79,36.68l183.21 0 183.21 0c24.52,0 45.46,-14.01 54.8,-36.68 9.33,-22.67 4.33,-47.37 -13.09,-64.64l-61.36 -60.82 -89.56 -88.78 -32.3 -32.02c-23.04,-22.84 -60.37,-22.85 -83.42,0l-121.85 120.8 -61.37 60.82c-17.42,17.27 -22.41,41.97 -13.08,64.64z"/>
  </g>
 </g>
</svg>
