<svg width="452" height="199" viewBox="0 0 452 199" fill="none" xmlns="http://www.w3.org/2000/svg">
<rect width="452" height="199" fill="white"/>
<path d="M130.56 140V84H149.44V140H130.56ZM170.689 140V98.64H154.289V84H205.969V98.64H189.569V140H170.689Z" fill="#2ED3C0"/>
<path d="M245.673 140L231.753 113.76L246.793 104.96L266.953 140H245.673ZM210.793 140V84H229.673V140H210.793ZM224.233 119.76V104.88H245.433V119.76H224.233ZM248.633 114L231.273 112.24L247.353 84H267.033L248.633 114ZM276.604 141.04C275.431 141.04 274.178 140.96 272.844 140.8C271.511 140.64 270.098 140.373 268.604 140L269.564 124.88C270.311 125.04 271.004 125.12 271.644 125.12C273.724 125.12 275.271 124.267 276.284 122.56C277.298 120.853 277.991 118.56 278.364 115.68C278.738 112.747 278.978 109.467 279.084 105.84L279.804 84H327.084V140H308.524V94.64L312.604 98.64H292.204L295.884 94.4L295.564 105.12C295.404 110.507 295.031 115.413 294.444 119.84C293.911 124.213 292.978 128 291.644 131.2C290.311 134.347 288.418 136.773 285.964 138.48C283.564 140.187 280.444 141.04 276.604 141.04ZM341.456 125.36C344.762 126.213 347.349 126.507 349.216 126.24C351.082 125.92 352.736 124.773 354.176 122.8L356.896 118.96L358.496 117.2L374.736 84H392.976L370.496 126.16C368.042 130.747 365.082 134.32 361.616 136.88C358.202 139.387 354.416 140.827 350.256 141.2C346.096 141.573 341.696 140.827 337.056 138.96L341.456 125.36ZM358.256 132L332.176 84H352.096L368.496 118.96L358.256 132ZM396.898 140V84H445.458V98.24H415.457V104.72H428.818C435.644 104.72 440.871 106.187 444.498 109.12C448.178 112 450.018 116.187 450.018 121.68C450.018 127.387 447.938 131.867 443.778 135.12C439.618 138.373 433.831 140 426.418 140H396.898ZM415.457 126.8H425.138C427.004 126.8 428.444 126.4 429.458 125.6C430.524 124.8 431.058 123.653 431.058 122.16C431.058 119.28 429.084 117.84 425.138 117.84H415.457V126.8Z" fill="#333444"/>
<path d="M30.6548 126.347C38.6253 139.081 63.7629 143.112 80.0104 131.035C98.6985 117.145 54.3618 120.826 30.6548 126.347Z" fill="#C7C8CA"/>
<rect x="53.9541" y="30.0024" width="6.74425" height="30.0045" fill="#D9D9D9"/>
<path d="M45.3701 58.8705C45.3701 54.5966 47.8157 50.6996 51.6644 48.841L51.9533 48.7015C55.1538 47.1558 58.8848 47.1558 62.0853 48.7015L62.3742 48.841C66.2228 50.6996 68.6684 54.5966 68.6684 58.8705V58.8705C68.6684 65.0218 63.6818 70.0085 57.5305 70.0085H56.508C50.3567 70.0085 45.3701 65.0218 45.3701 58.8705V58.8705Z" fill="#C4C4C6"/>
<path d="M0 79.1846C0 69.9743 7.46647 62.5078 16.6768 62.5078H96.7492C105.96 62.5078 113.426 69.9743 113.426 79.1846V127.1C113.426 128.021 112.679 128.768 111.758 128.768H1.66768C0.746644 128.768 0 128.021 0 127.1V79.1846Z" fill="#C7C8CA"/>
<path d="M0 74.1836C0 64.9733 7.46647 57.5068 16.6768 57.5068H96.7492C105.96 57.5068 113.426 64.9733 113.426 74.1837V122.099C113.426 123.02 112.679 123.767 111.758 123.767H1.66768C0.746644 123.767 0 123.02 0 122.099V74.1836Z" fill="#D9D9D9"/>
<path d="M15.3286 78.6305C15.3286 71.9094 20.7771 66.4609 27.4982 66.4609H85.9294C92.6504 66.4609 98.0989 71.9094 98.0989 78.6305V113.596C98.0989 114.268 97.5541 114.813 96.882 114.813H16.5456C15.8735 114.813 15.3286 114.268 15.3286 113.596V78.6305Z" fill="#333444"/>
<ellipse cx="57.0206" cy="23.7513" rx="8.58359" ry="8.75132" fill="#C6C8CA"/>
<ellipse cx="9.1967" cy="9.37641" rx="9.1967" ry="9.37641" transform="matrix(-1 0 0 1 79.7046 71.8838)" fill="#2ED3C0"/>
<ellipse cx="9.1967" cy="9.37641" rx="9.1967" ry="9.37641" transform="matrix(-1 0 0 1 52.728 71.8838)" fill="#2ED3C0"/>
<path fill-rule="evenodd" clip-rule="evenodd" d="M39.2402 96.8872C39.2403 104.827 47.0635 111.264 56.714 111.264C66.3644 111.264 74.1876 104.827 74.1877 96.8872H39.2402Z" fill="#2ED3C0"/>
<path fill-rule="evenodd" clip-rule="evenodd" d="M44.0715 106.812C41.0783 104.231 39.2403 100.736 39.2402 96.8872H74.1877C74.1877 97.5232 74.1375 98.1496 74.0402 98.7638H41.0794V98.7639C41.0794 101.746 42.1826 104.515 44.0715 106.812Z" fill="black" fill-opacity="0.13"/>
<path fill-rule="evenodd" clip-rule="evenodd" d="M37.6727 88.4883C35.6336 86.7685 34.3345 84.169 34.3345 81.2602C34.3345 76.0818 38.452 71.8838 43.5312 71.8838C46.3818 71.8838 48.9295 73.2061 50.6164 75.2819C49.0254 73.94 46.984 73.1336 44.7579 73.1336C39.6787 73.1336 35.5612 77.3315 35.5612 82.51C35.5612 84.7821 36.3539 86.8655 37.6727 88.4883Z" fill="black" fill-opacity="0.13"/>
<path fill-rule="evenodd" clip-rule="evenodd" d="M64.6519 88.4909C62.611 86.7711 61.3105 84.1705 61.3105 81.2602C61.3105 76.0818 65.4281 71.8838 70.5072 71.8838C73.3567 71.8838 75.9034 73.205 77.5903 75.2793C75.9998 73.9389 73.9596 73.1336 71.735 73.1336C66.6558 73.1336 62.5383 77.3315 62.5383 82.51C62.5383 84.7833 63.3318 86.8677 64.6519 88.4909Z" fill="black" fill-opacity="0.13"/>
<path d="M25.7505 155.241C25.7505 142.346 36.2035 131.893 49.098 131.893H63.7143C76.6088 131.893 87.0618 142.346 87.0618 155.241V169.399H25.7505V155.241Z" fill="#E6E6E6"/>
<path fill-rule="evenodd" clip-rule="evenodd" d="M78.4928 155.861C78.4858 155.029 78.479 154.225 78.479 153.458C78.479 143.473 72.188 134.987 63.4267 131.893H49.0987C48.9881 131.893 48.8777 131.894 48.7674 131.895C40.0095 134.991 33.7217 143.476 33.7217 153.458C33.7217 158.001 33.7217 163.817 34.7126 169.399H77.8318C78.5683 164.76 78.5276 159.958 78.4928 155.861Z" fill="#DBDBDB"/>
</svg>
